<svg width="266" height="91" viewBox="0 0 266 91" fill="none" xmlns="http://www.w3.org/2000/svg">
<path d="M61.4994 74.7988L61.4986 74.7995L61.4866 74.8103C56.4252 79.3351 51.1599 84.0423 45.8372 89.3652C45.7249 89.4775 45.5804 89.5333 45.4312 89.5333C45.2823 89.5333 45.1377 89.4775 45.0255 89.3652C39.7132 84.053 34.4596 79.3537 29.4095 74.8365L29.3979 74.8261L29.3975 74.8258L29.3855 74.815L29.385 74.8146C29.384 74.8138 29.383 74.8129 29.382 74.812C21.7503 67.9861 14.6781 61.6539 9.64274 55.0942L9.64271 55.0941C3.97833 47.7154 1.41064 40.7612 1.41064 33.1418C1.41064 20.8483 11.4143 10.8444 23.7079 10.8444C28.956 10.8444 32.8602 12.1003 36.0295 14.3246C39.2266 16.5683 41.7855 19.8737 44.2026 24.1612L45.4314 26.3409L46.6602 24.1612C49.0774 19.8737 51.6364 16.5684 54.8335 14.3246C58.0028 12.1003 61.9069 10.8444 67.155 10.8444C79.4638 10.8444 89.4776 20.8497 89.4776 33.1418C89.4776 40.7574 86.9097 47.7087 81.2445 55.0849L82.3633 55.9442L81.2445 55.0849C76.2081 61.6426 69.1355 67.9722 61.5033 74.7953L61.5018 74.7967L61.5012 74.7972L61.4994 74.7988Z" stroke="white" stroke-opacity="0.25" stroke-width="2.82127"/>
<path d="M37.5435 17.7784C41.3711 7.6761 41.795 5.28565 44.3788 2.45827C45.9176 0.774385 50.409 2.57647 50.409 2.57647C74.0744 63.4335 81.6249 75.5232 78.9819 79.4876C76.9694 82.5063 56.8404 81.1271 56.8404 81.1271L56.4504 79.5712C56.4504 79.5712 63.4966 76.2825 61.9942 72.4402C41.7487 20.6624 42.4192 20.8824 37.5435 17.7784Z" fill="white"/>
<path d="M18.0909 64.0761C16.2039 69.3776 12.4898 76.5968 14.3152 79.2609C16.1406 81.925 32.682 80.8005 32.682 80.8005L32.5418 78.2858C30.1581 76.4052 27.7984 74.2299 24.6534 71.0849C21.9036 68.335 19.6215 66.5022 18.0909 64.0761Z" fill="white"/>
<path d="M152.299 70.3351C149.21 74.4964 148.144 75.3836 144.511 77.8288C140.878 80.274 136.704 81.4966 131.988 81.4966C127.831 81.4966 124.181 80.7631 121.037 79.2959C117.928 77.8288 115.36 75.8377 113.334 73.3226C111.308 70.8075 109.789 67.8733 108.776 64.5198C107.798 61.1664 107.309 57.6208 107.309 53.8831C107.309 50.5297 107.833 47.2461 108.881 44.0324C109.963 40.7837 111.535 37.8669 113.596 35.282C115.587 32.8018 118.05 30.8107 120.984 29.3087C123.954 27.7717 127.272 27.0032 130.94 27.0032C134.712 27.0032 137.944 27.597 140.633 28.7847C143.323 29.9724 145.506 31.5967 147.183 33.6577C148.79 35.6138 149.978 37.9193 150.746 40.5741C151.55 43.229 151.594 47.9922 151.594 51.1011V54.5593L117.379 55.4092C117.379 58.7975 117.491 59.3413 118.12 62.1009C118.783 64.8605 120.373 67.0873 121.77 69.1832C123.133 71.2093 124.914 72.8161 127.115 74.0038C129.316 75.1565 131.935 75.7329 134.974 75.7329C138.083 75.7329 140.543 75.436 142.779 74.0038C145.049 72.5367 144.426 72.8067 146.651 70.7585L152.299 70.3351ZM141.105 51.8288C141.105 49.8726 141.454 44.2245 141.105 41.9889C140.791 39.7532 140.267 37.8844 139.533 36.3823C138.73 34.7755 137.629 33.4655 136.232 32.4525C134.835 31.4395 133.036 30.933 130.835 30.933C127.167 30.933 124.111 32.47 121.665 35.544C119.255 38.583 117.588 47.9459 117.379 53.3952L141.105 51.8288Z" fill="white"/>
<path d="M106.627 80.3967L82.8368 80.4079L83.1821 76.6764C83.1821 76.6764 84.892 76.7073 86.244 76.3097C87.2221 75.9953 87.9556 75.4538 88.4447 74.6853C88.9337 73.8819 89.1783 72.8514 89.1783 71.5939C89.4749 49.0932 89.7857 49.7684 89.6784 36.5578C89.6784 30.0977 86.4395 20.2975 78.6992 16.2231L78.7512 12.0925L98.1907 10.8873L98.9243 11.6733L98.9242 70.4471C98.9242 72.6434 99.8052 74.5981 101.296 76.2049C102.464 77.4624 104.772 77.9663 106.627 78.1037V80.3967Z" fill="white"/>
<path d="M265.759 80.6375H241.357V77.1792C242.16 77.1094 242.389 77.0395 243.228 76.9696C244.101 76.8998 244.852 76.76 245.481 76.5505C246.459 76.2361 247.175 75.6946 247.629 74.9261C248.118 74.1227 248.363 73.0922 248.363 71.8347V38.2478C248.363 37.13 248.101 36.117 247.577 35.2088C247.088 34.2656 246.389 33.4797 245.481 32.8509C244.817 32.4317 243.856 32.0824 242.599 31.8029C241.341 31.4885 240.189 31.2964 239.141 31.2266V27.8207L257.375 26.668L258.109 27.4015V71.2059C258.109 72.4285 258.336 73.4415 258.79 74.245C259.279 75.0484 260.03 75.6422 261.043 76.0265C261.811 76.3409 262.562 76.6029 263.296 76.8124C264.029 76.9871 264.85 77.1094 265.759 77.1792V80.6375Z" fill="white"/>
<path d="M257.165 16.3143C258.492 14.8123 259.156 13.0657 259.156 11.0746C259.156 9.29305 258.51 7.73859 257.217 6.41118C255.96 5.04884 254.335 4.36768 252.344 4.36768C250.563 4.36768 249.008 5.08378 247.681 6.51598C246.388 7.94818 245.742 9.6249 245.742 11.5461C245.742 13.3626 246.388 14.9869 247.681 16.4191C249.008 17.8164 250.563 18.515 252.344 18.515C254.266 18.515 255.872 17.7815 257.165 16.3143Z" fill="white"/>
<path d="M191.345 54.8263C192.777 56.0838 193.877 57.5335 194.646 59.1753C195.414 60.8171 195.798 62.8256 195.798 65.201C195.798 69.9866 193.999 73.899 190.401 76.9381C186.838 79.9771 182.21 81.4966 176.516 81.4966C173.512 81.4966 170.789 80.9552 168.239 79.8723C166.481 79.3381 164.483 79.5149 164.483 79.5149L160.005 79.8723L159.386 69.4984L163.633 69.2099C163.633 69.2099 164.972 71.393 166.887 73.1436C168.803 74.8941 168.971 74.8422 170.857 75.8901C172.778 76.9381 174.927 77.462 177.302 77.462C180.655 77.462 183.24 76.711 185.057 75.2089C186.873 73.6719 187.781 71.4887 187.781 68.6592C187.781 67.1921 187.485 65.9346 186.891 64.8866C186.332 63.8037 185.493 62.8606 184.376 62.0571C183.223 61.2537 181.808 60.5376 180.131 59.9088C178.455 59.2451 176.586 58.5989 174.525 57.9701C172.883 57.4811 171.049 56.8174 169.023 55.979C167.032 55.1057 165.32 54.0927 163.888 52.94C162.351 51.7174 161.094 50.2153 160.116 48.4338C159.137 46.6523 158.648 44.5564 158.648 42.1461C158.648 37.9193 160.22 34.3388 163.364 31.4046C166.508 28.4703 170.717 27.0032 175.992 27.0032C178.018 27.0032 180.079 27.2652 182.175 27.7891C184.306 28.3131 184.742 28.2516 184.742 28.2516L191.588 27.9182L192.3 41.004L188.677 41.2377C187.944 37.535 187.188 36.8539 184.742 34.5484C182.332 32.208 179.38 31.0378 175.887 31.0378C173.023 31.0378 170.77 31.7539 169.128 33.1861C167.486 34.6183 166.665 36.3474 166.665 38.3734C166.665 39.9454 166.927 41.2553 167.451 42.3033C168.01 43.3512 168.831 44.242 169.914 44.9755C170.962 45.6742 172.272 46.3379 173.844 46.9666C175.451 47.5605 177.424 48.2417 179.765 49.0102C182.07 49.7437 184.236 50.5995 186.262 51.5776C188.323 52.5557 190.017 53.6386 191.345 54.8263Z" fill="white"/>
<path d="M233.266 54.8264C234.699 56.0839 235.799 57.5336 236.567 59.1754C237.336 60.8172 237.72 62.8258 237.72 65.2011C237.72 69.9868 235.921 73.8991 232.323 76.9382C228.76 79.9772 224.132 81.4968 218.438 81.4968C215.434 81.4968 212.711 80.9553 210.161 79.8724C208.402 79.3382 206.405 79.5151 206.405 79.5151L201.926 79.8724L201.307 69.4986L205.555 69.21C205.555 69.21 206.894 71.3931 208.809 73.1437C210.725 74.8943 210.893 74.8423 212.779 75.8902C214.7 76.9382 216.848 77.4622 219.224 77.4622C222.577 77.4622 225.162 76.7111 226.979 75.2091C228.795 73.6721 229.703 71.4888 229.703 68.6594C229.703 67.1922 229.406 65.9347 228.813 64.8867C228.254 63.8039 227.415 62.8607 226.298 62.0573C225.145 61.2538 223.73 60.5377 222.053 59.909C220.377 59.2453 218.508 58.599 216.447 57.9703C214.805 57.4812 212.971 56.8175 210.945 55.9792C208.954 55.1059 207.242 54.0928 205.81 52.9401C204.273 51.7175 203.016 50.2154 202.037 48.4339C201.059 46.6524 200.57 44.5565 200.57 42.1462C200.57 37.9195 202.142 34.339 205.286 31.4047C208.43 28.4704 212.639 27.0033 217.914 27.0033C219.94 27.0033 222.001 27.2653 224.097 27.7893C226.228 28.3132 226.664 28.2517 226.664 28.2517L233.51 27.9183L234.222 41.0041L230.599 41.2379C229.865 37.5351 229.11 36.854 226.664 34.5485C224.254 32.2081 221.302 31.0379 217.809 31.0379C214.945 31.0379 212.692 31.754 211.05 33.1862C209.408 34.6184 208.587 36.3475 208.587 38.3736C208.587 39.9455 208.849 41.2554 209.373 42.3034C209.932 43.3513 210.753 44.2421 211.836 44.9757C212.884 45.6743 214.194 46.338 215.766 46.9668C217.372 47.5606 219.346 48.2418 221.687 49.0103C223.992 49.7438 226.158 50.5997 228.184 51.5778C230.245 52.5558 231.939 53.6387 233.266 54.8264Z" fill="white"/>
</svg>
